<svg t="1732005177751" class="icon" viewBox="0 0 1024 1024" version="1.1"
  xmlns="http://www.w3.org/2000/svg" p-id="1074" width="2104" height="2104">
  <path d="M865.323077 177.993846c-3.528205-6.921026-9.657436-11.721026-16.689231-13.390769-7.044103-1.661538-14.354872-0.020513-20.237949 4.475897-0.102564 0.036923-10.732308 8.414359-29.403076 17.952821-65.571282 39.667692-218.469744 51.593846-279.528206-98.297436-3.491282-8.295385-9.464615-13.362051-15.930256-13.542564h-0.01641c-6.477949-0.164103-12.668718 4.635897-16.516923 12.734359-1.878974 0.172308-19.532308 47.081026-70.52718 84.414359-49.234872 36.775385-131.827692 63.995897-222.789743 11.757949-12.123077-7.068718-27.195897-3.076923-34.322052 9.595897-0.488205 4.648205-59.926154 97.911795-70.162051 249.546667-13.944615 198.441026 103.934359 427.634872 371.257436 532.077948 7.117949 2.744615 15.146667 4.254359 23.224615 4.488205 7.060513 0.192821 14.153846-0.603077 20.701539-2.4 5.44-0.426667 184.287179-50.026667 308.557948-203.401025 57.312821-68.196923 106.346667-164.151795 118.998975-268.258462 13.858462-104.488205-8.672821-217.144615-66.617436-327.753846z" fill="#1E9158" p-id="1075"></path>
  <path d="M432.793846 550.892308c-19.532308 0-35.52-6.211282-47.52-18.449231-15.684103-16-23.003077-40.648205-22.363077-75.331282-0.64-34.674872 6.674872-59.314872 22.358975-75.318974 12.590769-12.849231 29.501538-19.072821 50.44923-18.408206 21.009231-0.709744 37.858462 5.558974 50.445129 18.404103 15.684103 16 22.998974 40.644103 22.363076 75.323077 0.64 34.678974-6.678974 59.323077-22.363076 75.323077-12.590769 12.849231-29.481026 19.097436-50.445129 18.408205-0.984615 0.032821-1.961026 0.049231-2.916923 0.049231h-0.008205z m0.008205-146.535385c-10.941538 0-15.643077 3.50359-18.227692 6.145641-5.173333 5.28-11.21641 17.575385-10.637949 46.190769l0.008205 0.414359-0.008205 0.414359c-0.578462 28.627692 5.464615 40.927179 10.637949 46.203077 2.584615 2.637949 7.282051 6.141538 18.22359 6.137436 0.689231 0 1.394872-0.012308 2.108718-0.041026l0.812307-0.03282 0.812308 0.03282c0.709744 0.028718 1.411282 0.041026 2.100513 0.041026 10.945641 0 15.647179-3.50359 18.231795-6.145641 5.173333-5.275897 11.212308-17.575385 10.637948-46.194872l-0.008205-0.414359 0.008205-0.414359c0.578462-28.62359-5.464615-40.918974-10.637948-46.194871-2.580513-2.637949-7.282051-6.141538-18.227693-6.141539-0.689231 0-1.394872 0.012308-2.104615 0.041026l-0.812308 0.03282-0.812307-0.03282c-0.709744-0.024615-1.411282-0.041026-2.104616-0.041026z" fill="#FFFFFF" p-id="1076"></path>
  <path d="M848.625641 163.097436c-7.044103-1.661538-14.354872-0.020513-20.237949 4.475897-0.102564 0.036923-10.732308 8.414359-29.403077 17.952821-65.571282 39.667692-218.469744 51.593846-279.528205-98.297436-2.436923-5.792821-6.09641-9.956923-10.27282-12.041026v899.561026c29.878974-8.196923 189.76-61.563077 303.753846-202.248205 57.312821-68.196923 106.346667-164.147692 118.998974-268.254359 13.858462-104.500513-8.672821-217.156923-66.617436-327.766154-3.532308-6.912821-9.661538-11.716923-16.693333-13.382564z" fill="#1E9158" p-id="1077"></path>
  <path d="M573.158974 372.020513h41.025641v170.178461h-41.025641zM560.514872 757.078974c-0.964103 0-1.944615-0.01641-2.929231-0.04923-21.025641 0.681026-37.862564-5.554872-50.449231-18.408206-15.684103-16.004103-22.998974-40.644103-22.358974-75.318974-0.64-34.678974 6.674872-59.318974 22.358974-75.323077 12.590769-12.849231 29.427692-19.117949 50.449231-18.408205 20.914872-0.681026 37.858462 5.558974 50.445128 18.404103 15.684103 16.004103 22.998974 40.648205 22.363077 75.327179 0.635897 34.678974-6.678974 59.323077-22.363077 75.32718-11.995897 12.242051-27.987692 18.449231-47.515897 18.44923z m-2.929231-41.099487l0.812308 0.032821c0.717949 0.028718 1.42359 0.045128 2.116923 0.045128 10.933333 0 15.634872-3.50359 18.215384-6.141539 5.173333-5.275897 11.212308-17.575385 10.637949-46.198974l-0.008205-0.414359 0.008205-0.414359c0.578462-28.62359-5.464615-40.923077-10.637949-46.198974-2.588718-2.637949-7.286154-6.145641-18.231794-6.145641-0.693333 0-1.390769 0.01641-2.104616 0.045128l-0.808205 0.03282-0.808205-0.03282a52.250256 52.250256 0 0 0-2.104615-0.045128c-10.949744 0-15.651282 3.507692-18.235898 6.145641-5.173333 5.275897-11.212308 17.575385-10.633846 46.194872l0.008205 0.418461-0.008205 0.418462c-0.582564 28.615385 5.464615 40.914872 10.637949 46.190769 2.584615 2.642051 7.282051 6.145641 18.223589 6.145641 0.693333 0 1.394872-0.01641 2.108718-0.045128l0.812308-0.032821zM387.329231 582.313846h41.025641v166.075898h-41.025641z" fill="#FFFFFF" p-id="1078"></path>
</svg>